<svg xmlns="http://www.w3.org/2000/svg" width="40" height="40" fill="none"><g clip-path="url(#a)"><path fill="#297AFF" d="M33.724 36.58A21.429 21.429 0 0 0 3.42 6.277l7.071 7.071c1.116 1.116 2.918 1.06 4.337.371a8.57 8.57 0 0 1 11.455 11.455c-.69 1.42-.745 3.221.37 4.337l7.072 7.07Z"/><path fill="#34C2FF" d="M30 40H19.51a5.714 5.714 0 0 1-4.04-1.674L1.673 24.531A5.714 5.714 0 0 1 0 20.49V10l30 30Zm-19.286 0H4.286A4.286 4.286 0 0 1 0 35.713v-6.429L10.714 40Z"/></g><defs><clipPath id="a"><path fill="#fff" d="M0 0h40v40H0z"/></clipPath></defs></svg>