<svg xmlns="http://www.w3.org/2000/svg" width="20" height="20" fill="none"><g fill="#fff" clip-path="url(#a)"><path d="M15.417 5.829V3.015h.972V0H3.609v3.015h.972v2.814c0 1.62.734 3.15 1.961 4.171a5.442 5.442 0 0 0-1.961 4.171v2.814h-.972V20h12.78v-3.015h-.972v-2.814c0-1.62-.734-3.15-1.961-4.171a5.442 5.442 0 0 0 1.961-4.171Zm-10.62-4.64h10.404v.637H4.798v-.638Zm10.404 17.623H4.798v-.638H15.2v.638Zm-3.077-8.299a4.248 4.248 0 0 1 2.105 3.658v2.814H5.77v-2.814c0-1.5.807-2.901 2.105-3.658L8.756 10l-.882-.513A4.248 4.248 0 0 1 5.77 5.829V3.015h8.46v2.814c0 1.5-.806 2.902-2.105 3.658l-.881.513.881.513Z"/><path d="m13.547 13.248-.083-.32-.315-.098c-.247-.077-.443-.167-.616-.245-.318-.145-.49-.215-.917-.215-.429 0-.6.07-.917.215-.413.188-.928.423-1.878.423-.756 0-1.223-.148-1.545-.278l-.603-.242-.187.622a3.69 3.69 0 0 0-.154 1.061v2.25h7.333v-2.25c0-.312-.04-.623-.118-.923Zm-1.07 1.985H7.52v-1.062c0-.04.001-.079.003-.118.342.081.77.143 1.298.143 1.209 0 1.908-.32 2.371-.53.235-.108.235-.108.424-.108s.189 0 .424.108c.113.051.251.114.415.178.014.109.021.218.021.327v1.062Z"/></g><defs><clipPath id="a"><path fill="#fff" d="M0 0h20v20H0z"/></clipPath></defs></svg>