<svg xmlns="http://www.w3.org/2000/svg" width="20" height="20" fill="none"><g fill="#fff" clip-path="url(#a)"><path d="M20 12.143V7.857h-1.66a8.503 8.503 0 0 0-.929-2.238l1.175-1.175-3.03-3.03-1.175 1.175a8.503 8.503 0 0 0-2.239-.928V0H7.857v1.66a8.503 8.503 0 0 0-2.238.929L4.444 1.414l-3.03 3.03 1.175 1.175c-.416.7-.727 1.45-.928 2.238H0v4.285h1.66c.202.789.513 1.539.929 2.24l-1.175 1.174 3.03 3.03 1.175-1.175c.7.416 1.45.727 2.239.928V20h4.285v-1.66a8.504 8.504 0 0 0 2.238-.929l1.175 1.175 3.03-3.03-1.175-1.175c.416-.7.727-1.45.928-2.239H20Zm-2.625-1.189-.094.48a7.343 7.343 0 0 1-1.118 2.7l-.273.406 1.016 1.016-1.35 1.35-1.016-1.016-.406.273a7.34 7.34 0 0 1-2.7 1.118l-.48.094v1.437H9.046v-1.437l-.48-.094a7.342 7.342 0 0 1-2.7-1.118l-.406-.273-1.016 1.016-1.35-1.35L4.11 14.54l-.272-.406a7.342 7.342 0 0 1-1.12-2.7l-.093-.48H1.188V9.046h1.437l.094-.48c.19-.97.566-1.878 1.119-2.7l.272-.406-1.016-1.016 1.35-1.35L5.46 4.11l.406-.272a7.342 7.342 0 0 1 2.7-1.12l.48-.093V1.188h1.908v1.437l.48.094a7.33 7.33 0 0 1 2.7 1.119l.406.272 1.016-1.016 1.35 1.35L15.89 5.46l.273.406c.552.822.928 1.73 1.118 2.7l.094.48h1.437v1.908h-1.437Z"/><path d="M10 3.782A6.225 6.225 0 0 0 3.78 10 6.225 6.225 0 0 0 10 16.218 6.225 6.225 0 0 0 16.217 10 6.225 6.225 0 0 0 10 3.782Zm0 11.248A5.036 5.036 0 0 1 4.97 10 5.036 5.036 0 0 1 10 4.97 5.036 5.036 0 0 1 15.03 10 5.036 5.036 0 0 1 10 15.03Z"/><path d="M10.002 6.025A3.979 3.979 0 0 0 6.027 10a3.979 3.979 0 0 0 3.975 3.974A3.979 3.979 0 0 0 13.976 10a3.979 3.979 0 0 0-3.974-3.975Zm0 6.76A2.79 2.79 0 0 1 7.216 10a2.79 2.79 0 0 1 2.786-2.786A2.79 2.79 0 0 1 12.788 10a2.79 2.79 0 0 1-2.786 2.786Z"/></g><defs><clipPath id="a"><path fill="#fff" d="M0 0h20v20H0z"/></clipPath></defs></svg>