<svg xmlns="http://www.w3.org/2000/svg" width="20" height="20" fill="none"><g fill="#fff" clip-path="url(#a)"><path d="m18.427 17.35-2.162-3.385-1.853-2.899-1.115-1.745L10 4.162 6.703 9.321l-.64 1.003-2.328 3.641-.347.544L0 19.811h20l-1.573-2.462ZM10 6.392l.387.606h-.774L10 6.393ZM8.845 8.2h2.31l.716 1.121H8.13l.716-1.12ZM7.3 10.618l.061-.096h5.278l.442.692.274.429h-6.71l.655-1.025Zm-1.423 2.226h8.246l.716 1.121H5.16l.716-1.12Zm-1.484 2.322h11.214l.716 1.121H3.677l.716-1.12Zm-2.2 3.443.717-1.12h14.18l.717 1.12H2.193ZM10.6.19H9.398v3.043H10.6V.189ZM5.549 1.784l-.85.85 2.152 2.152.85-.85-2.152-2.152Zm.6 4.698H3.105v1.202H6.15V6.482Zm10.746 0h-3.043v1.202h3.043V6.482Zm-2.446-4.697-2.152 2.152.85.849 2.151-2.152-.85-.85Z"/></g><defs><clipPath id="a"><path fill="#fff" d="M0 0h20v20H0z"/></clipPath></defs></svg>