<svg xmlns="http://www.w3.org/2000/svg" width="40" height="36" fill="none"><g fill="#25CAAC" clip-path="url(#a)"><path d="M5.473 27.215c1.467 1.017 3.845 1.017 5.312 0 1.467-1.018 1.467-2.668 0-3.686-1.467-1.018-3.845-1.018-5.312 0s-1.467 2.668 0 3.686Zm15.224-13.823c2.2 1.527 5.768 1.527 7.968 0 2.2-1.526 2.2-4.002 0-5.528-2.2-1.527-5.768-1.527-7.968 0-2.2 1.526-2.2 4.002 0 5.528Zm-8.082 6.911c1.834 1.273 4.807 1.273 6.64 0 1.834-1.272 1.834-3.335 0-4.607-1.833-1.272-4.806-1.272-6.64 0-1.833 1.272-1.833 3.335 0 4.607Zm-11.79-.919c1.1.763 2.884.763 3.984 0 1.1-.764 1.1-2.001 0-2.765-1.1-.763-2.884-.763-3.984 0-1.1.764-1.1 2.001 0 2.765Zm11.79-13.823c1.834 1.272 4.807 1.272 6.64 0 1.834-1.272 1.834-3.335 0-4.607-1.833-1.272-4.806-1.272-6.64 0-1.833 1.272-1.833 3.335 0 4.607Zm-7.142 6.911c1.467 1.018 3.845 1.018 5.312 0 1.467-1.017 1.467-2.668 0-3.685-1.467-1.018-3.845-1.018-5.312 0-1.467 1.017-1.467 2.668 0 3.685Zm7.142 22.573c1.834 1.273 4.807 1.273 6.64 0 1.834-1.272 1.834-3.334 0-4.607-1.833-1.272-4.806-1.272-6.64 0-1.833 1.273-1.833 3.335 0 4.607Zm17.768-14.282c2.2 1.527 5.767 1.527 7.967 0 2.2-1.526 2.2-4.002 0-5.528-2.2-1.527-5.767-1.527-7.967 0-2.2 1.526-2.2 4.002 0 5.528Zm-9.686 7.371c2.2 1.527 5.768 1.527 7.968 0 2.2-1.526 2.2-4.001 0-5.528-2.2-1.527-5.768-1.527-7.968 0s-2.2 4.002 0 5.528Z"/></g><defs><clipPath id="a"><path fill="#fff" d="M0 0h40v36H0z"/></clipPath></defs></svg>