<svg xmlns="http://www.w3.org/2000/svg" width="40" height="39" fill="none"><path fill="#17CF97" d="M20 10.36c0 5.048-4.111 9.14-9.184 9.14H1.633v-9.14c0-5.049 4.111-9.141 9.183-9.141S20 5.31 20 10.359Zm0 18.28c0-5.048 4.112-9.14 9.184-9.14h9.183v9.14c0 5.049-4.111 9.141-9.183 9.141S20 33.69 20 28.641Zm-18.367 0c0 5.049 4.111 9.141 9.183 9.141H20v-9.14c0-5.049-4.111-9.141-9.184-9.141-5.072 0-9.183 4.092-9.183 9.14Zm36.734-18.28c0-5.049-4.111-9.141-9.183-9.141H20v9.14c0 5.049 4.112 9.141 9.184 9.141 5.072 0 9.183-4.092 9.183-9.14Z"/></svg>