<svg xmlns="http://www.w3.org/2000/svg" width="20" height="20" fill="none"><path fill="#fff" d="M10.001 0a6.959 6.959 0 0 0-6.95 6.95 6.91 6.91 0 0 0 1.995 4.875l.103.104c.502.528.88 1.15 1.115 1.831l-.023.014c-.445.28-.71.76-.71 1.285 0 .518.258.983.667 1.258a1.514 1.514 0 0 0 1.462 1.921h.148A2.25 2.25 0 0 0 10.001 20a2.25 2.25 0 0 0 2.194-1.762h.148a1.519 1.519 0 0 0 1.462-1.921c.409-.275.668-.74.668-1.258a1.51 1.51 0 0 0-.711-1.284l-.023-.015a5.053 5.053 0 0 1 1.11-1.825l.107-.11a6.91 6.91 0 0 0 1.996-4.874A6.958 6.958 0 0 0 10.002 0Zm0 18.812a1.06 1.06 0 0 1-.94-.573h1.88a1.06 1.06 0 0 1-.94.573Zm2.342-1.762h-.095v-.004l-.598.004H8.354l-.599-.008v.008H7.66a.33.33 0 0 1-.281-.5h5.245a.329.329 0 0 1-.281.5Zm.737-1.688H6.923a.327.327 0 0 1-.146-.49h6.449a.327.327 0 0 1-.145.491Zm-3.712-1.679v-3.521h1.267v3.521H9.368Zm4.774-2.725-.029.03a6.24 6.24 0 0 0-1.597 2.695h-.693v-3.521h.374c.861 0 1.562-.7 1.562-1.562 0-.86-.701-1.561-1.562-1.561-.861 0-1.562.7-1.562 1.561v.374H9.368V8.6c0-.86-.7-1.561-1.562-1.561-.86 0-1.561.7-1.561 1.561s.7 1.562 1.561 1.562h.373v3.521h-.692a6.239 6.239 0 0 0-1.597-2.696l-.028-.027a5.729 5.729 0 0 1-1.623-4.01 5.769 5.769 0 0 1 5.762-5.762 5.769 5.769 0 0 1 5.763 5.763 5.729 5.729 0 0 1-1.621 4.007Zm-2.319-1.984V8.6a.374.374 0 1 1 .374.374h-.373ZM8.18 8.6v.374h-.373A.374.374 0 1 1 8.18 8.6Z"/></svg>